<svg xmlns="http://www.w3.org/2000/svg" viewBox="0 0 48 48"><rect width="36" height="36" x="6" y="6" fill="#7952B3" rx="4"/><path fill="#fff" d="M13 13h10.5c2.6 0 4.7.5 6 1.5 1.3 1 2 2.5 2 4.5 0 1.3-.3 2.4-1 3.2-.7.8-1.7 1.4-3 1.8v.1c1.7.3 3 1 3.8 2 .9 1 1.3 2.3 1.3 3.9 0 2.2-.8 3.9-2.3 5.1-1.5 1.2-3.6 1.9-6.3 1.9H13V13zm5.1 9.6H22c1.3 0 2.3-.2 2.9-.7.6-.5.9-1.2.9-2.2s-.3-1.6-.9-2.1c-.6-.5-1.5-.7-2.8-.7h-4v5.7zm0 10H22.7c1.4 0 2.5-.3 3.2-.8.7-.5 1.1-1.4 1.1-2.5s-.4-1.9-1.1-2.4c-.7-.5-1.8-.8-3.3-.8h-4.5V32.6z"/></svg>
