<svg xmlns="http://www.w3.org/2000/svg" viewBox="0 0 48 48"><path fill="#F4511E" d="M44.6 22.7L25.3 3.4c-.8-.8-2.1-.8-2.9 0l-3.9 3.9 4.9 4.9c1.2-.4 2.5-.1 3.4.8.9.9 1.2 2.3.7 3.5l4.7 4.7c1.2-.5 2.5-.2 3.4.7 1.3 1.3 1.3 3.4 0 4.7-1.3 1.3-3.4 1.3-4.7 0-.9-.9-1.2-2.2-.8-3.4l-4.4-4.4v11.6c.7.4 1.4.9 1.8 1.7.9 1.7.4 3.8-1.2 5-1.6 1.1-3.8.8-5.1-.6-1.3-1.4-1.4-3.5-.1-5 .5-.5 1-.9 1.7-1.1V18.7c-.6-.3-1.2-.7-1.7-1.2C20 16 19.8 13.8 20.8 12l-4.7-4.7-12.8 12.8c-.8.8-.8 2.1 0 2.9L22.6 42.3c.8.8 2.1.8 2.9 0l19.1-19.1c.9-.7.9-2 0-2.5z"/></svg>
