<svg xmlns="http://www.w3.org/2000/svg" viewBox="0 0 48 48"><path fill="#388E3C" d="M24 3.9c-.6 0-1.2.2-1.7.5L7.1 13.3c-1.1.6-1.7 1.7-1.7 3v17.5c0 1.2.6 2.4 1.7 3l15.2 8.8c1.1.6 2.3.6 3.4 0l15.2-8.8c1.1-.6 1.7-1.7 1.7-3V16.2c0-1.2-.6-2.4-1.7-3L25.7 4.4c-.5-.3-1.1-.5-1.7-.5z"/><path fill="#fff" d="M24 10.2c-.3 0-.5.1-.7.2l-9.1 5.3c-.4.3-.7.7-.7 1.2v10.5c0 .5.3 1 .7 1.2l2.3 1.3c1.1.5 1.5.5 2 .5 1.6 0 2.5-.9 2.5-2.6v-10c0-.1.1-.2.2-.2h1.1c.1 0 .2.1.2.2v10c0 2.5-1.4 4-3.8 4-1 0-1.7-.2-3.4-1L13 29.1c-.8-.5-1.3-1.3-1.3-2.2V16.7c0-.9.5-1.8 1.3-2.2l9.1-5.3c.8-.4 1.8-.4 2.6 0l9.1 5.3c.8.5 1.3 1.3 1.3 2.2v10.2c0 .9-.5 1.8-1.3 2.2l-9.1 5.3c-.4.2-.8.3-1.3.3-.4 0-.9-.1-1.3-.3"/></svg>
