<svg xmlns="http://www.w3.org/2000/svg" viewBox="0 0 48 48"><path fill="#0277BD" d="M24.047 5c-1.555.005-3.07.163-4.32.504-3.756 1.049-4.437 3.245-4.437 7.28v3.485h8.875v1.162H12.043c-4.065 0-7.625 2.442-8.736 7.08-1.275 5.316-1.332 8.636 0 14.188 1.006 4.138 3.404 7.08 7.469 7.08h4.823v-4.187c0-4.618 3.993-8.69 8.736-8.69h8.865c3.891 0 7.008-3.205 7.008-7.108V12.784c0-3.793-3.195-6.638-7.008-7.28C31.504 5.103 25.603 4.995 24.047 5zm-4.937 2.97c1.449 0 2.634 1.198 2.634 2.67 0 1.467-1.185 2.657-2.634 2.657-1.453 0-2.634-1.19-2.634-2.657 0-1.472 1.181-2.67 2.634-2.67z"/><path fill="#FFC107" d="M36.337 43c1.555-.005 3.07-.162 4.32-.504 3.755-1.048 4.436-3.245 4.436-7.28v-3.485H36.22v-1.162h12.122c4.066 0 7.625-2.442 8.737-7.08 1.274-5.316 1.331-8.636 0-14.188-1.006-4.137-3.404-7.08-7.469-7.08h-4.824v4.187c0 4.618-3.992 8.691-8.736 8.691h-8.865c-3.891 0-7.008 3.204-7.008 7.107v11.9c0 3.793 3.196 6.637 7.008 7.28C29.88 42.897 34.781 43.006 36.337 43zm4.936-2.97c-1.449 0-2.634-1.198-2.634-2.67 0-1.467 1.185-2.657 2.634-2.657 1.453 0 2.634 1.19 2.634 2.657 0 1.473-1.181 2.67-2.634 2.67z"/></svg>
