<svg xmlns="http://www.w3.org/2000/svg" viewBox="0 0 48 48"><path fill="#80DEEA" d="M24 12.1C29.7 6.4 35.8 3 39.1 5c3.4 2 3.1 9-.6 17.2-1 2.2-2.2 4.5-3.6 6.7-2.2.2-4.6.3-7 .3-2.3 0-4.6-.1-6.8-.3-1.3-2.2-2.5-4.4-3.5-6.6C14.1 14 13.8 7 17.2 5c3.3-2 9.1 1.3 14.5 6.8l.7.7-.7.7C26 18 21.3 24.1 17.6 30.2c-.9-.1-1.8-.3-2.7-.5C6.4 27.7 1 23.6 1 20.2c0-3.3 5-7.1 13.3-9.2-1.3 2.1-2.4 4.2-3.2 6.4C8.6 15.9 7 17.7 7 19.1c0 1.9 3.3 4.5 9.1 6.5.5.2 1 .3 1.5.5.5-1.1 1.1-2.3 1.7-3.5 1.2-2.4 2.5-4.7 3.8-6.8z"/><path fill="#80DEEA" d="M24 36.3c-5.7 5.7-11.8 9.1-15.1 7.1-3.4-2-3.1-9 .6-17.2 1-2.2 2.2-4.5 3.6-6.7 2.2-.2 4.6-.3 7-.3 2.3 0 4.6.1 6.8.3 1.3 2.2 2.5 4.4 3.5 6.6 3.5 8.1 3.8 15.1.4 17.1-3.3 2-9.1-1.3-14.5-6.8l-.7-.7.7-.7C22 30.4 26.7 24.3 30.4 18.2c.9.1 1.8.3 2.7.5 8.5 2 13.9 6.1 13.9 9.5 0 3.3-5 7.1-13.3 9.2 1.3-2.1 2.4-4.2 3.2-6.4 2.5 1.5 4.1 3.3 4.1 4.7 0 1.9-3.3 4.5-9.1 6.5-.5.2-1 .3-1.5.5-.5-1.1-1.1-2.3-1.7-3.5-1.2-2.4-2.5-4.7-3.8-6.8z"/><circle cx="24" cy="24" r="4.1" fill="#80DEEA"/></svg>
