<svg xmlns="http://www.w3.org/2000/svg" viewBox="0 0 48 48"><rect width="36" height="36" x="6" y="6" fill="#1565C0" rx="2"/><path fill="#fff" d="M27.49 22H14.227v3.264h4.757V40h3.769V25.264h4.737zm6.724 4.54c0-.924-.715-1.795-2.216-1.795-1.37 0-2.248.578-2.248 1.647 0 .956.615 1.478 2.248 1.934l1.017.28c2.6.683 4.453 1.795 4.453 4.31 0 2.888-2.276 4.31-5.388 4.31-3.096 0-5.06-1.59-5.34-4.31l3.064-.523c.106 1.448.896 2.186 2.33 2.186 1.297 0 2.17-.578 2.17-1.647 0-1.01-.788-1.505-2.33-1.939l-1.002-.264C28.46 29.8 26.86 28.672 26.86 26.2c0-2.74 2.15-4.13 5.152-4.13 2.924 0 4.69 1.52 5.026 3.8l-2.824.67z"/></svg>
